<svg width="324" height="92" viewBox="0 0 324 92" fill="none" xmlns="http://www.w3.org/2000/svg">
<path d="M196.576 56.024C196.576 56.856 196.524 57.7227 196.42 58.624H176.296C176.435 60.4267 177.007 61.8133 178.012 62.784C179.052 63.72 180.317 64.188 181.808 64.188C184.027 64.188 185.569 63.252 186.436 61.38H195.9C195.415 63.2867 194.531 65.0027 193.248 66.528C192 68.0533 190.423 69.2493 188.516 70.116C186.609 70.9827 184.477 71.416 182.12 71.416C179.277 71.416 176.747 70.8093 174.528 69.596C172.309 68.3827 170.576 66.6493 169.328 64.396C168.08 62.1427 167.456 59.508 167.456 56.492C167.456 53.476 168.063 50.8413 169.276 48.588C170.524 46.3347 172.257 44.6013 174.476 43.388C176.695 42.1747 179.243 41.568 182.12 41.568C184.928 41.568 187.424 42.1573 189.608 43.336C191.792 44.5147 193.491 46.196 194.704 48.38C195.952 50.564 196.576 53.112 196.576 56.024ZM187.476 53.684C187.476 52.1587 186.956 50.9453 185.916 50.044C184.876 49.1427 183.576 48.692 182.016 48.692C180.525 48.692 179.26 49.1253 178.22 49.992C177.215 50.8587 176.591 52.0893 176.348 53.684H187.476ZM218.947 41.672C222.344 41.672 225.048 42.7813 227.059 45C229.104 47.184 230.127 50.2 230.127 54.048V71H221.287V55.244C221.287 53.3027 220.784 51.7947 219.779 50.72C218.774 49.6453 217.422 49.108 215.723 49.108C214.024 49.108 212.672 49.6453 211.667 50.72C210.662 51.7947 210.159 53.3027 210.159 55.244V71H201.267V41.984H210.159V45.832C211.06 44.5493 212.274 43.544 213.799 42.816C215.324 42.0533 217.04 41.672 218.947 41.672ZM234.538 56.44C234.538 53.4587 235.093 50.8413 236.202 48.588C237.346 46.3347 238.889 44.6013 240.83 43.388C242.771 42.1747 244.938 41.568 247.33 41.568C249.237 41.568 250.97 41.9667 252.53 42.764C254.125 43.5613 255.373 44.636 256.274 45.988V32.52H265.166V71H256.274V66.84C255.442 68.2267 254.246 69.336 252.686 70.168C251.161 71 249.375 71.416 247.33 71.416C244.938 71.416 242.771 70.8093 240.83 69.596C238.889 68.348 237.346 66.5973 236.202 64.344C235.093 62.056 234.538 59.4213 234.538 56.44ZM256.274 56.492C256.274 54.2733 255.65 52.5227 254.402 51.24C253.189 49.9573 251.698 49.316 249.93 49.316C248.162 49.316 246.654 49.9573 245.406 51.24C244.193 52.488 243.586 54.2213 243.586 56.44C243.586 58.6587 244.193 60.4267 245.406 61.744C246.654 63.0267 248.162 63.668 249.93 63.668C251.698 63.668 253.189 63.0267 254.402 61.744C255.65 60.4613 256.274 58.7107 256.274 56.492ZM284.807 71.416C281.964 71.416 279.399 70.8093 277.111 69.596C274.858 68.3827 273.072 66.6493 271.755 64.396C270.472 62.1427 269.831 59.508 269.831 56.492C269.831 53.5107 270.49 50.8933 271.807 48.64C273.124 46.352 274.927 44.6013 277.215 43.388C279.503 42.1747 282.068 41.568 284.911 41.568C287.754 41.568 290.319 42.1747 292.607 43.388C294.895 44.6013 296.698 46.352 298.015 48.64C299.332 50.8933 299.991 53.5107 299.991 56.492C299.991 59.4733 299.315 62.108 297.963 64.396C296.646 66.6493 294.826 68.3827 292.503 69.596C290.215 70.8093 287.65 71.416 284.807 71.416ZM284.807 63.72C286.506 63.72 287.944 63.096 289.123 61.848C290.336 60.6 290.943 58.8147 290.943 56.492C290.943 54.1693 290.354 52.384 289.175 51.136C288.031 49.888 286.61 49.264 284.911 49.264C283.178 49.264 281.739 49.888 280.595 51.136C279.451 52.3493 278.879 54.1347 278.879 56.492C278.879 58.8147 279.434 60.6 280.543 61.848C281.687 63.096 283.108 63.72 284.807 63.72ZM313.6 46.82C314.64 45.2253 315.94 43.9773 317.5 43.076C319.06 42.14 320.794 41.672 322.7 41.672V51.084H320.256C318.038 51.084 316.374 51.5693 315.264 52.54C314.155 53.476 313.6 55.14 313.6 57.532V71H304.708V41.984H313.6V46.82Z" fill="white"/>
<path d="M44.564 28.496V65H35.672V43.108L27.508 65H20.332L12.116 43.056V65H3.224V28.496H13.728L23.972 53.768L34.112 28.496H44.564ZM80.5984 35.984L62.3984 78.78H52.8304L59.4864 64.012L47.6824 35.984H57.6144L64.3224 54.132L70.9784 35.984H80.5984Z" fill="white"/>
<g clip-path="url(#clip0_2_9)">
<path d="M73.8734 0.485229H150.537L139.571 17.6618H133.36H103.957L125.985 52.2089L144.035 23.7754L162.861 23.0961L125.985 85.5915L73.8734 0.485229Z" fill="white" stroke="white" stroke-miterlimit="10"/>
<path d="M148.402 15.7209H169.169L177.224 0.485229H157.815L148.402 15.7209Z" fill="white" stroke="white" stroke-miterlimit="10"/>
</g>
<defs>
<clipPath id="clip0_2_9">
<rect width="105" height="86.4649" fill="white" transform="translate(73)"/>
</clipPath>
</defs>
</svg>
